<?xml version="1.0" encoding="UTF-8"?>
<svg id="Layer_1" data-name="Layer 1" xmlns="http://www.w3.org/2000/svg" viewBox="0 0 32 32">
  <defs>
    <style>
      .cls-1 {
        fill: #000;
        stroke-width: 0px;
      }
    </style>
  </defs>
  <circle class="cls-1" cx="16" cy="16" r="1.6"/>
  <g>
    <path class="cls-1" d="M27.45,14.95v-1.97c0-4.66-3.77-8.43-8.43-8.43h0s-.06.03-.06.06v1.85s.03.06.06.06h0c3.57,0,6.46,2.89,6.46,6.46v3.94s.03.06.06.06h6.4s.06-.03.06-.06v-1.85s-.03-.06-.06-.06h-4.43s-.06-.03-.06-.06Z"/>
    <path class="cls-1" d="M25.48,19.02c0,3.57-2.89,6.46-6.46,6.46h-3.94s-.06.03-.06.06v6.4s.03.06.06.06h1.85s.06-.03.06-.06v-4.43s.03-.06.06-.06h1.97c4.66,0,8.43-3.77,8.43-8.43h0s-.03-.06-.06-.06h-1.85s-.06.03-.06.06h0Z"/>
    <path class="cls-1" d="M6.52,19.02v-3.94s-.03-.06-.06-.06H.06s-.06.03-.06.06v1.85s.03.06.06.06h4.43s.06.03.06.06v1.97c0,4.66,3.77,8.43,8.43,8.43h0s.06-.03.06-.06v-1.85s-.03-.06-.06-.06h0c-3.57,0-6.46-2.89-6.46-6.46Z"/>
    <path class="cls-1" d="M15.02.06v4.43s-.03.06-.06.06h-1.97c-4.66,0-8.43,3.77-8.43,8.43h0s.03.06.06.06h1.85s.06-.03.06-.06h0c0-3.57,2.89-6.46,6.46-6.46h3.94s.06-.03.06-.06V.06s-.03-.06-.06-.06h-1.85s-.06.03-.06.06Z"/>
  </g>
</svg>